<svg xmlns="http://www.w3.org/2000/svg" viewBox="81.7 -226.6 806.6 806.6" width="64" height="64">
  <rect x="81.7" y="-226.6" width="806.6" height="806.6" rx="121.0" fill="#f7f4ec"/>
  <g fill="none" stroke="#14110d" stroke-linecap="round" stroke-linejoin="round">
    <path d="M263.1 220.6L239.6 261.9M239.6 261.9L242.3 299.8M239.6 261.9L206.5 278.6M263.1 220.6L217.1 226.1M217.1 226.1L184.1 242.9M217.1 226.1L182.0 217.6M265.5 154.1L220.1 144.9M220.1 144.9L183.8 152.4M220.1 144.9L190.4 124.3M265.5 154.1L242.7 115.1M242.7 115.1L210.4 99.0M242.7 115.1L244.5 79.9M268.9 169.0L231.3 174.6M231.3 174.6L205.6 190.8M231.3 174.6L202.7 166.7M268.9 169.0L247.7 138.7M247.7 138.7L222.4 123.2M247.7 138.7L241.9 110.3M268.9 169.0L243.6 152.2M243.6 152.2L219.5 148.9M243.6 152.2L231.6 131.7M333.3 72.7L291.4 53.1M291.4 53.1L255.0 60.5M291.4 53.1L274.2 21.3M333.3 72.7L327.0 28.0M327.0 28.0L305.8 -1.3M327.0 28.0L338.8 -5.2M373.8 63.1L362.0 19.5M362.0 19.5L333.8 -3.1M362.0 19.5L374.7 -13.4M373.8 63.1L393.9 24.0M393.9 24.0L392.4 -11.2M393.9 24.0L422.7 5.2M286.3 159.5L252.2 176.3M252.2 176.3L236.4 202.2M252.2 176.3L222.7 172.9M286.3 159.5L255.3 139.2M255.3 139.2L225.7 138.7M255.3 139.2L243.4 112.9M303.7 127.2L268.0 117.5M268.0 117.5L240.5 128.8M268.0 117.5L250.4 94.5M303.7 127.2L300.1 91.2M300.1 91.2L285.7 66.1M300.1 91.2L309.0 64.5M420.4 42.7L380.3 19.4M380.3 19.4L343.4 23.0M380.3 19.4L365.6 -13.6M420.4 42.7L404.7 0.4M404.7 0.4L374.3 -19.2M404.7 0.4L414.9 -33.4M420.4 42.7L401.5 10.8M401.5 10.8L376.0 -4.3M401.5 10.8L400.5 -18.1M467.8 31.5L459.1 -12.8M459.1 -12.8L435.6 -40.2M459.1 -12.8L470.3 -46.2M467.8 31.5L491.2 -5.8M491.2 -5.8L492.5 -41.0M491.2 -5.8L521.5 -22.0M516.2 42.9L493.4 4.0M493.4 4.0L460.7 -11.4M493.4 4.0L495.9 -31.2M516.2 42.9L537.8 4.5M537.8 4.5L537.1 -30.7M537.8 4.5L567.4 -12.8M516.2 42.9L517.2 6.8M517.2 6.8L500.6 -16.9M517.2 6.8L534.6 -15.4M568.8 81.4L600.4 50.8M600.4 50.8L612.2 17.6M600.4 50.8L633.1 40.3M568.8 81.4L611.5 85.8M611.5 85.8L640.9 68.0M611.5 85.8L635.9 108.7M568.8 81.4L597.6 61.2M597.6 61.2L612.2 37.1M597.6 61.2L624.6 55.9M532.6 57.1L522.7 22.3M522.7 22.3L502.4 1.8M522.7 22.3L529.1 -5.1M532.6 57.1L562.2 37.9M562.2 37.9L576.2 13.5M562.2 37.9L589.5 35.2M315.4 57.4L262.4 63.6M262.4 63.6L230.9 92.6M262.4 63.6L226.0 43.2M315.4 57.4L280.2 19.0M280.2 19.0L239.4 10.3M280.2 19.0L275.1 -21.3M369.7 16.1L333.1 -21.0M333.1 -21.0L292.5 -30.6M333.1 -21.0L324.3 -60.7M369.7 16.1L395.0 -27.9M395.0 -27.9L397.2 -68.5M395.0 -27.9L428.1 -49.8M369.7 16.1L377.6 -24.8M377.6 -24.8L369.2 -57.1M377.6 -24.8L396.8 -51.1M419.4 2.3L382.8 -34.7M382.8 -34.7L344.0 -50.1M382.8 -34.7L368.4 -72.7M419.4 2.3L430.7 -47.2M430.7 -47.2L414.2 -84.4M430.7 -47.2L460.9 -72.9M465.2 8.0L466.2 -42.9M466.2 -42.9L444.5 -77.2M466.2 -42.9L488.6 -75.5M465.2 8.0L503.8 -23.1M503.8 -23.1L523.5 -57.6M503.8 -23.1L540.6 -34.8M437.7 63.1L391.6 58.4M391.6 58.4L357.4 72.5M391.6 58.4L361.7 38.1M437.7 63.1L420.2 21.5M420.2 21.5L390.1 1.5M420.2 21.5L426.9 -13.1M437.7 63.1L404.4 46.9M404.4 46.9L374.7 48.0M404.4 46.9L387.3 23.6M473.4 42.2L443.1 8.7M443.1 8.7L409.5 -4.5M443.1 8.7L433.5 -25.2M473.4 42.2L488.6 0.8M488.6 0.8L482.0 -33.8M488.6 0.8L515.3 -20.8M453.6 62.8L417.3 55.4M417.3 55.4L388.3 61.5M417.3 55.4L393.6 38.8M453.6 62.8L450.9 26.8M450.9 26.8L439.1 0.4M450.9 26.8L458.3 -0.4M453.6 62.8L443.8 34.9M443.8 34.9L426.7 18.4M443.8 34.9L446.7 11.9M533.2 34.3L502.7 1.0M502.7 1.0L467.4 -6.9M502.7 1.0L498.1 -33.9M533.2 34.3L554.2 -4.4M554.2 -4.4L552.0 -39.6M554.2 -4.4L584.0 -21.4M533.2 34.3L540.8 -1.0M540.8 -1.0L529.2 -27.5M540.8 -1.0L561.7 -19.9M571.9 45.4L575.6 1.6M575.6 1.6L563.4 -31.5M575.6 1.6L592.6 -28.3M571.9 45.4L611.1 27.9M611.1 27.9L633.9 2.2M611.1 27.9L644.6 28.0M571.9 45.4L595.8 19.6M595.8 19.6L603.1 -7.6M595.8 19.6L621.8 10.5M540.4 45.2L519.6 15.6M519.6 15.6L494.1 2.0M519.6 15.6L515.6 -12.3M540.4 45.2L561.0 16.6M561.0 16.6L568.9 -10.4M561.0 16.6L583.7 1.0M540.4 45.2L552.1 18.8M552.1 18.8L553.1 -4.3M552.1 18.8L568.1 2.9M608.2 63.1L576.8 30.6M576.8 30.6L542.4 19.8M576.8 30.6L567.6 -3.4M608.2 63.1L625.2 22.5M625.2 22.5L625.7 -12.8M625.2 22.5L649.3 -2.0M608.2 63.1L607.2 27.0M607.2 27.0L589.7 4.0M607.2 27.0L623.2 3.7M654.2 76.6L667.6 34.7M667.6 34.7L664.6 -0.4M667.6 34.7L689.7 8.4M654.2 76.6L692.5 57.2M692.5 57.2L711.7 28.7M692.5 57.2L726.0 58.5M624.8 73.8L610.6 40.6M610.6 40.6L586.7 24.3M610.6 40.6L615.3 12.8M624.8 73.8L646.8 46.4M646.8 46.4L649.8 18.3M646.8 46.4L672.9 37.7M624.8 73.8L625.9 45.0M625.9 45.0L613.5 25.5M625.9 45.0L639.5 27.0M702.6 128.9L715.6 86.8M715.6 86.8L710.1 52.0M715.6 86.8L739.3 61.9M702.6 128.9L740.6 108.8M740.6 108.8L759.6 80.2M740.6 108.8L774.1 109.1M702.6 128.9L732.7 110.6M732.7 110.6L747.7 86.7M732.7 110.6L760.1 108.3M716.4 193.4L759.4 194.0M759.4 194.0L788.0 175.0M759.4 194.0L786.7 213.3M716.4 193.4L744.5 224.5M744.5 224.5L774.1 240.1M744.5 224.5L756.6 254.8M708.4 154.9L733.5 130.2M733.5 130.2L744.2 104.2M733.5 130.2L759.1 120.2M708.4 154.9L742.8 155.5M742.8 155.5L768.3 145.4M742.8 155.5L767.4 166.0M708.4 154.9L736.2 150.5M736.2 150.5L755.2 138.2M736.2 150.5L757.5 156.0M640.7 98.5L624.5 66.2M624.5 66.2L599.2 52.1M624.5 66.2L628.2 38.3M640.7 98.5L661.8 70.3M661.8 70.3L668.3 42.9M661.8 70.3L685.6 56.6M679.2 131.9L703.5 106.4M703.5 106.4L709.0 78.8M703.5 106.4L730.1 99.6M679.2 131.9L712.2 141.5M712.2 141.5L739.6 139.0M712.2 141.5L733.5 157.7M679.2 131.9L707.4 130.7M707.4 130.7L727.2 120.0M707.4 130.7L727.6 139.3M650.2 110.0L649.3 81.1M649.3 81.1L639.6 60.1M649.3 81.1L657.3 60.0M650.2 110.0L670.4 90.3M670.4 90.3L677.7 69.0M670.4 90.3L691.4 83.8M505.3 23.4L455.0 9.9M455.0 9.9L414.5 19.7M455.0 9.9L425.6 -18.2M505.3 23.4L496.6 -26.6M496.6 -26.6L475.9 -61.7M496.6 -26.6L503.9 -65.6M505.3 23.4L492.1 -16.1M492.1 -16.1L469.4 -40.6M492.1 -16.1L495.4 -48.5M567.7 10.7L552.0 -37.6M552.0 -37.6L520.4 -63.2M552.0 -37.6L562.2 -75.9M567.7 10.7L606.7 -19.9M606.7 -19.9L627.1 -53.8M606.7 -19.9L643.6 -31.3M529.4 23.3L494.4 0.7M494.4 0.7L461.1 -0.4M494.4 0.7L480.2 -28.6M529.4 23.3L538.0 -16.4M538.0 -16.4L526.1 -46.7M538.0 -16.4L560.8 -38.5M647.2 37.3L646.1 -13.5M646.1 -13.5L630.6 -51.1M646.1 -13.5L659.6 -50.8M647.2 37.3L679.8 0.0M679.8 0.0L688.5 -38.7M679.8 0.0L716.1 -13.4M647.2 37.3L654.4 -2.7M654.4 -2.7L645.3 -33.9M654.4 -2.7L673.4 -28.1M685.2 80.4L724.9 50.8M724.9 50.8L745.0 16.7M724.9 50.8L762.5 41.7M685.2 80.4L733.2 85.0M733.2 85.0L767.9 67.9M733.2 85.0L763.2 107.9M685.2 80.4L724.4 85.6M724.4 85.6L752.7 71.2M724.4 85.6L747.3 106.4M671.7 75.9L694.6 42.3M694.6 42.3L696.4 9.8M694.6 42.3L723.3 28.9M671.7 75.9L711.1 80.6M711.1 80.6L739.2 66.0M711.1 80.6L734.4 100.9M671.7 75.9L696.8 55.2M696.8 55.2L703.2 30.0M696.8 55.2L722.1 53.6M314.3 82.0L264.9 102.5M264.9 102.5L242.7 139.0M264.9 102.5L224.4 92.6M314.3 82.0L267.4 59.4M267.4 59.4L225.7 59.3M267.4 59.4L242.0 27.6M362.9 21.4L331.0 -19.8M331.0 -19.8L295.1 -41.1M331.0 -19.8L319.6 -58.9M362.9 21.4L367.5 -29.2M367.5 -29.2L356.4 -68.3M367.5 -29.2L385.2 -64.7M362.9 21.4L368.7 -19.9M368.7 -19.9L358.2 -51.6M368.7 -19.9L386.9 -46.8M400.4 -1.4L356.3 -29.2M356.3 -29.2L315.2 -35.9M356.3 -29.2L333.1 -62.6M400.4 -1.4L397.5 -52.1M397.5 -52.1L379.5 -88.6M397.5 -52.1L410.7 -89.5M400.4 -1.4L368.6 -28.3M368.6 -28.3L335.8 -34.5M368.6 -28.3L357.3 -58.8M445.9 -7.6L424.1 -53.5M424.1 -53.5L394.0 -80.7M424.1 -53.5L422.0 -93.0M445.9 -7.6L482.7 -40.8M482.7 -40.8L490.2 -79.7M482.7 -40.8L521.2 -44.1M536.1 -2.7L495.3 -35.0M495.3 -35.0L454.5 -43.6M495.3 -35.0L477.9 -71.7M536.1 -2.7L536.4 -53.5M536.4 -53.5L517.2 -89.3M536.4 -53.5L555.4 -88.2M536.1 -2.7L511.0 -35.9M511.0 -35.9L482.3 -52.9M511.0 -35.9L502.9 -67.4M607.7 9.6L620.9 -39.5M620.9 -39.5L614.1 -79.6M620.9 -39.5L646.2 -70.0M607.7 9.6L654.5 -6.7M654.5 -6.7L681.2 -35.9M654.5 -6.7L692.6 -0.4M607.7 9.6L632.8 -22.4M632.8 -22.4L640.3 -54.1M632.8 -22.4L661.0 -36.9M633.8 26.9L630.7 -23.8M630.7 -23.8L612.4 -60.1M630.7 -23.8L644.1 -61.1M633.8 26.9L664.8 -11.7M664.8 -11.7L670.6 -50.9M664.8 -11.7L700.8 -25.6M633.8 26.9L642.5 -12.8M642.5 -12.8L638.4 -45.0M642.5 -12.8L659.4 -39.6M676.4 83.2L713.9 50.9M713.9 50.9L729.4 14.4M713.9 50.9L751.4 41.4M676.4 83.2L717.0 109.4M717.0 109.4L755.5 106.0M717.0 109.4L729.5 144.9M676.4 83.2L715.9 86.2M715.9 86.2L743.9 71.4M715.9 86.2L740.8 104.6M653.7 55.0L664.7 15.9M664.7 15.9L655.6 -15.3M664.7 15.9L688.1 -5.5M653.7 55.0L693.2 51.5M693.2 51.5L721.4 37.1M693.2 51.5L722.8 60.5M612.5 40.2L600.0 0.5M600.0 0.5L579.4 -25.8M600.0 0.5L601.6 -32.0M612.5 40.2L643.5 13.9M643.5 13.9L658.4 -15.0M643.5 13.9L673.7 4.3M646.7 75.8L674.5 46.1M674.5 46.1L682.6 14.6M674.5 46.1L704.5 36.0M646.7 75.8L685.2 85.3M685.2 85.3L716.7 81.3M685.2 85.3L710.6 102.9M646.7 75.8L677.0 63.8M677.0 63.8L691.2 42.0M677.0 63.8L701.6 69.9M390.8 -13.8L330.7 -12.0M330.7 -12.0L286.6 7.2M330.7 -12.0L286.6 -28.1M390.8 -13.8L363.6 -65.8M363.6 -65.8L323.6 -90.2M363.6 -65.8L366.3 -111.4M390.8 -13.8L355.8 -46.8M355.8 -46.8L318.1 -54.3M355.8 -46.8L346.5 -83.2M460.3 -49.0L433.1 -101.0M433.1 -101.0L396.4 -130.2M433.1 -101.0L430.1 -146.6M460.3 -49.0L492.9 -96.0M492.9 -96.0L499.7 -141.2M492.9 -96.0L531.9 -117.6M543.2 -47.8L511.9 -97.4M511.9 -97.4L474.8 -126.1M511.9 -97.4L502.3 -142.1M543.2 -47.8L576.0 -94.7M576.0 -94.7L584.3 -139.6M576.0 -94.7L614.4 -117.3M543.2 -47.8L552.6 -93.8M552.6 -93.8L541.7 -129.7M552.6 -93.8L576.3 -121.7M598.3 -17.9L618.9 -71.2M618.9 -71.2L612.9 -116.6M618.9 -71.2L653.0 -100.0M598.3 -17.9L653.7 -23.6M653.7 -23.6L688.1 -52.0M653.7 -23.6L692.2 -3.3M417.1 8.3L369.1 4.9M369.1 4.9L332.4 16.4M369.1 4.9L335.2 -11.2M417.1 8.3L391.0 -30.7M391.0 -30.7L355.9 -43.9M391.0 -30.7L392.1 -67.2M480.9 -19.0L460.5 -61.2M460.5 -61.2L433.2 -87.0M460.5 -61.2L457.4 -97.7M480.9 -19.0L515.3 -49.1M515.3 -49.1L526.6 -83.9M515.3 -49.1L550.4 -55.4M436.3 3.3L401.8 -13.8M401.8 -13.8L371.0 -14.9M401.8 -13.8L383.0 -37.2M436.3 3.3L421.8 -31.3M421.8 -31.3L398.3 -49.9M421.8 -31.3L425.2 -60.4M436.3 3.3L414.2 -18.1M414.2 -18.1L390.6 -25.3M414.2 -18.1L406.6 -40.9" stroke-width="9"/>
    <path d="M460.0 246.1L386.8 189.1M386.8 189.1L312.6 187.8M312.6 187.8L263.1 220.6M312.6 187.8L265.5 154.1M312.6 187.8L268.9 169.0M386.8 189.1L367.8 119.3M367.8 119.3L333.3 72.7M367.8 119.3L373.8 63.1M386.8 189.1L333.7 162.5M333.7 162.5L286.3 159.5M333.7 162.5L303.7 127.2M460.0 246.1L476.1 157.1M476.1 157.1L457.6 87.1M457.6 87.1L420.4 42.7M457.6 87.1L467.8 31.5M476.1 157.1L516.7 99.4M516.7 99.4L516.2 42.9M516.7 99.4L568.8 81.4M516.7 99.4L532.6 57.1M460.0 246.1L430.0 146.1M430.0 146.1L378.1 80.7M378.1 80.7L315.4 57.4M378.1 80.7L369.7 16.1M430.0 146.1L437.3 65.0M437.3 65.0L419.4 2.3M437.3 65.0L465.2 8.0M537.1 248.2L522.9 158.8M522.9 158.8L484.2 97.6M484.2 97.6L437.7 63.1M484.2 97.6L473.4 42.2M484.2 97.6L453.6 62.8M522.9 158.8L540.1 90.4M540.1 90.4L533.2 34.3M540.1 90.4L571.9 45.4M540.1 90.4L540.4 45.2M537.1 248.2L600.5 186.8M600.5 186.8L618.6 118.6M618.6 118.6L608.2 63.1M618.6 118.6L654.2 76.6M618.6 118.6L624.8 73.8M600.5 186.8L667.5 171.3M667.5 171.3L702.6 128.9M667.5 171.3L716.4 193.4M667.5 171.3L708.4 154.9M600.5 186.8L636.7 143.5M636.7 143.5L640.7 98.5M636.7 143.5L679.2 131.9M636.7 143.5L650.2 110.0M537.1 248.2L567.2 150.9M567.2 150.9L549.3 71.5M549.3 71.5L505.3 23.4M549.3 71.5L567.7 10.7M549.3 71.5L529.4 23.3M567.2 150.9L625.5 97.0M625.5 97.0L647.2 37.3M625.5 97.0L685.2 80.4M625.5 97.0L671.7 75.9M500.9 224.5L447.2 135.0M447.2 135.0L381.1 83.9M381.1 83.9L314.3 82.0M381.1 83.9L362.9 21.4M447.2 135.0L433.5 54.7M433.5 54.7L400.4 -1.4M433.5 54.7L445.9 -7.6M500.9 224.5L552.2 136.6M552.2 136.6L564.4 56.0M564.4 56.0L536.1 -2.7M564.4 56.0L607.7 9.6M552.2 136.6L614.6 87.5M614.6 87.5L633.8 26.9M614.6 87.5L676.4 83.2M614.6 87.5L653.7 55.0M552.2 136.6L598.0 90.3M598.0 90.3L612.5 40.2M598.0 90.3L646.7 75.8M500.9 224.5L499.9 107.1M499.9 107.1L455.7 24.1M455.7 24.1L390.8 -13.8M455.7 24.1L460.3 -49.0M499.9 107.1L541.5 25.4M541.5 25.4L543.2 -47.8M541.5 25.4L598.3 -17.9M499.9 107.1L469.1 38.5M469.1 38.5L417.1 8.3M469.1 38.5L480.9 -19.0M469.1 38.5L436.3 3.3" stroke-width="18"/>
    <path d="M500.0 500.0L500.0 355.0M500.0 355.0L460.0 246.1M500.0 355.0L537.1 248.2M500.0 355.0L500.9 224.5" stroke-width="34"/>
  </g>
</svg>